<svg xmlns="http://www.w3.org/2000/svg" width="1200" height="630" viewBox="0 0 1200 630">
  <defs>
    <linearGradient id="bgGrad" x1="0" y1="0" x2="1200" y2="630" gradientUnits="userSpaceOnUse">
      <stop offset="0%" stop-color="#ffffff"/>
      <stop offset="100%" stop-color="#E8F2FF"/>
    </linearGradient>
    <linearGradient id="logoGrad" x1="50" y1="0" x2="50" y2="100" gradientUnits="userSpaceOnUse">
      <stop offset="0%" stop-color="#4FC3F7"/>
      <stop offset="50%" stop-color="#7C8FF5"/>
      <stop offset="100%" stop-color="#9C5CF5"/>
    </linearGradient>
  </defs>
  
  <!-- Background -->
  <rect width="1200" height="630" fill="url(#bgGrad)"/>
  
  <!-- Logo -->
  <g transform="translate(100, 215)">
    <path d="M58 8 C30 8,6 28,6 50 C6 72,30 92,58 92 L44 74 C28 72,20 62,20 50 C20 38,28 28,44 26Z" fill="url(#logoGrad)" transform="scale(2)"/>
    <path d="M52 30 C38 32,32 40,32 50 C32 60,38 68,52 70 L44 60 C40 58,38 54,38 50 C38 46,40 42,44 40Z" fill="white" fill-opacity="0.93" transform="scale(2)"/>
  </g>
  
  <!-- Text -->
  <text x="340" y="280" font-family="-apple-system, BlinkMacSystemFont, 'SF Pro Display', sans-serif" font-size="72" font-weight="700" fill="#1D1D1F">CROC</text>
  <text x="540" y="280" font-family="-apple-system, BlinkMacSystemFont, 'SF Pro Display', sans-serif" font-size="72" font-weight="400" fill="#86868B">CONSULTING</text>
  
  <!-- Tagline -->
  <text x="340" y="340" font-family="-apple-system, BlinkMacSystemFont, 'SF Pro Display', sans-serif" font-size="28" font-weight="500" fill="#0071E3">Outsourced MV & HV Equipment Procurement</text>
  
  <!-- Subtext -->
  <text x="340" y="400" font-family="-apple-system, BlinkMacSystemFont, 'SF Pro Display', sans-serif" font-size="22" fill="#86868B">One call. Three quotes. Engineer-backed.</text>
  <text x="340" y="435" font-family="-apple-system, BlinkMacSystemFont, 'SF Pro Display', sans-serif" font-size="22" fill="#86868B">Commission-based. No cost to you.</text>
</svg>
